<svg id="Layer_1" data-name="Layer 1" xmlns="http://www.w3.org/2000/svg" viewBox="0 0 198.23 124.56"><defs><style>.cls-1{fill:none;}.cls-2{fill:#0ba14a;}.cls-3{fill:#333;}</style></defs><title>hisab kitab logo</title><polygon class="cls-1" points="118.2 52.72 117.93 52.44 117.93 52.72 118.2 52.72"/><polygon class="cls-2" points="30.09 47.15 30.09 0 0 0 0 124.56 30.09 124.56 30.09 72.48 76.11 72.48 76.11 47.15 30.09 47.15"/><polygon class="cls-3" points="141.4 57.36 195.06 0 157.41 0 112.9 50.67 112.37 50.67 112.37 50.14 82.81 20.59 82.81 21.23 112.29 50.71 82.81 21.23 82.81 102.51 112.37 67.99 112.37 67.21 112.72 67.21 159 124.56 198.23 124.56 141.4 57.36"/></svg>